<svg xmlns="http://www.w3.org/2000/svg" xmlns:xlink="http://www.w3.org/1999/xlink" width="72" zoomAndPan="magnify" viewBox="0 0 54 54" height="72" preserveAspectRatio="xMidYMid meet" version="1.0"><defs><clipPath id="ba9afce22f"><path d="M 9.105469 33 L 21 33 L 21 44.699219 L 9.105469 44.699219 Z M 9.105469 33 " clip-rule="nonzero"/></clipPath></defs><path fill="#ffffff" d="M 32.011719 38.625 L 31.542969 34.078125 C 45.175781 25.347656 41.851562 12.691406 41.8125 12.542969 L 41.691406 12.113281 L 41.257812 11.992188 C 41.109375 11.949219 28.457031 8.625 19.726562 22.257812 L 15.179688 21.789062 C 14.597656 21.730469 13.894531 22.101562 13.613281 22.613281 L 10.167969 28.9375 C 9.890625 29.449219 10.128906 29.773438 10.703125 29.652344 L 16.574219 28.429688 C 16.347656 28.988281 16.121094 29.554688 15.910156 30.148438 L 15.738281 30.625 L 18.695312 33.582031 C 17.496094 35.105469 16.867188 36.292969 17.191406 36.613281 C 17.511719 36.933594 18.695312 36.304688 20.21875 35.105469 L 23.175781 38.0625 L 23.65625 37.890625 C 24.25 37.679688 24.8125 37.457031 25.371094 37.226562 L 24.148438 43.097656 C 24.027344 43.671875 24.351562 43.910156 24.863281 43.628906 L 31.1875 40.1875 C 31.699219 39.910156 32.070312 39.207031 32.011719 38.625 Z M 23.585938 36.21875 L 21.445312 34.074219 C 21.960938 33.617188 22.496094 33.125 23.039062 32.578125 C 25.765625 29.851562 27.574219 27.230469 27.070312 26.730469 C 26.570312 26.230469 23.953125 28.035156 21.222656 30.761719 C 20.679688 31.308594 20.183594 31.839844 19.726562 32.359375 L 17.582031 30.214844 C 24.652344 11.234375 37.742188 12.878906 40.378906 13.421875 C 40.925781 16.054688 42.566406 29.152344 23.585938 36.21875 Z M 23.585938 36.21875 " fill-opacity="1" fill-rule="nonzero"/><path fill="#ffffff" d="M 36.15625 17.644531 C 34.203125 15.695312 31.027344 15.695312 29.074219 17.644531 C 27.125 19.597656 27.125 22.773438 29.074219 24.722656 C 31.03125 26.679688 34.203125 26.679688 36.15625 24.722656 C 38.109375 22.773438 38.109375 19.597656 36.15625 17.644531 Z M 29.828125 23.972656 C 28.289062 22.4375 28.292969 19.933594 29.828125 18.398438 C 31.363281 16.859375 33.867188 16.859375 35.402344 18.398438 C 36.941406 19.933594 36.941406 22.4375 35.402344 23.972656 C 33.867188 25.511719 31.363281 25.511719 29.828125 23.972656 Z M 29.828125 23.972656 " fill-opacity="1" fill-rule="nonzero"/><path fill="#ffffff" d="M 35.671875 21.1875 C 35.671875 21.589844 35.59375 21.980469 35.441406 22.355469 C 35.285156 22.730469 35.0625 23.0625 34.777344 23.347656 C 34.492188 23.632812 34.160156 23.855469 33.785156 24.011719 C 33.410156 24.164062 33.023438 24.242188 32.617188 24.242188 C 32.210938 24.242188 31.820312 24.164062 31.445312 24.011719 C 31.070312 23.855469 30.742188 23.632812 30.453125 23.347656 C 30.167969 23.0625 29.949219 22.730469 29.792969 22.355469 C 29.636719 21.980469 29.558594 21.589844 29.558594 21.1875 C 29.558594 20.78125 29.636719 20.390625 29.792969 20.015625 C 29.949219 19.640625 30.167969 19.3125 30.453125 19.023438 C 30.742188 18.738281 31.070312 18.515625 31.445312 18.363281 C 31.820312 18.207031 32.210938 18.128906 32.617188 18.128906 C 33.023438 18.128906 33.410156 18.207031 33.785156 18.363281 C 34.160156 18.515625 34.492188 18.738281 34.777344 19.023438 C 35.0625 19.3125 35.285156 19.640625 35.441406 20.015625 C 35.59375 20.390625 35.671875 20.78125 35.671875 21.1875 Z M 35.671875 21.1875 " fill-opacity="1" fill-rule="nonzero"/><g clip-path="url(#ba9afce22f)"><path fill="#ffffff" d="M 20.378906 36.609375 L 17.601562 40.695312 L 11.285156 42.519531 L 13.109375 36.199219 L 17.191406 33.421875 L 12.09375 34.746094 C 11.527344 34.894531 10.96875 35.484375 10.847656 36.058594 L 9.230469 43.75 C 9.113281 44.324219 9.480469 44.691406 10.054688 44.574219 L 17.746094 42.957031 C 18.320312 42.835938 18.910156 42.277344 19.054688 41.710938 Z M 20.378906 36.609375 " fill-opacity="1" fill-rule="nonzero"/></g></svg>