<svg xmlns="http://www.w3.org/2000/svg" xmlns:xlink="http://www.w3.org/1999/xlink" width="72" zoomAndPan="magnify" viewBox="0 0 54 54" height="72" preserveAspectRatio="xMidYMid meet" version="1.0"><defs><clipPath id="6b6a32540c"><path d="M 14 14.820312 L 40 14.820312 L 40 38.386719 L 14 38.386719 Z M 14 14.820312 " clip-rule="nonzero"/></clipPath><clipPath id="cf3d2b1373"><path d="M 0.492188 22 L 17 22 L 17 38.386719 L 0.492188 38.386719 Z M 0.492188 22 " clip-rule="nonzero"/></clipPath><clipPath id="891b15b1d2"><path d="M 37 22 L 53.507812 22 L 53.507812 38.386719 L 37 38.386719 Z M 37 22 " clip-rule="nonzero"/></clipPath></defs><path fill="#ffffff" d="M 27.011719 16.265625 L 30.378906 23.164062 L 37.9375 24.269531 L 32.464844 29.640625 L 33.769531 37.21875 L 27.011719 33.652344 L 20.253906 37.21875 L 21.535156 29.640625 L 16.0625 24.269531 L 23.621094 23.164062 Z M 27.011719 16.265625 " fill-opacity="1" fill-rule="nonzero"/><path fill="#ffffff" d="M 8.695312 24.332031 L 10.757812 28.578125 L 15.410156 29.257812 L 12.042969 32.546875 L 12.84375 37.21875 L 8.695312 35.007812 L 4.527344 37.21875 L 5.328125 32.546875 L 1.957031 29.257812 L 6.609375 28.578125 Z M 8.695312 24.332031 " fill-opacity="1" fill-rule="nonzero"/><path fill="#ffffff" d="M 45.324219 24.332031 L 47.390625 28.578125 L 52.042969 29.257812 L 48.671875 32.546875 L 49.472656 37.21875 L 45.324219 35.007812 L 41.15625 37.21875 L 41.957031 32.546875 L 38.589844 29.257812 L 43.242188 28.578125 Z M 45.324219 24.332031 " fill-opacity="1" fill-rule="nonzero"/><g clip-path="url(#6b6a32540c)"><path fill="#ffffff" d="M 34.589844 38.386719 L 26.988281 34.351562 L 19.390625 38.386719 L 20.84375 29.851562 L 14.714844 23.820312 L 23.199219 22.570312 L 26.988281 14.820312 L 30.777344 22.570312 L 39.261719 23.820312 L 33.117188 29.851562 Z M 17.433594 24.714844 L 22.210938 29.425781 L 21.09375 36.050781 L 27.011719 32.90625 L 32.925781 36.050781 L 31.789062 29.40625 L 36.566406 24.691406 L 29.957031 23.738281 L 26.988281 17.6875 L 24.042969 23.738281 Z M 17.433594 24.714844 " fill-opacity="1" fill-rule="nonzero"/></g><g clip-path="url(#cf3d2b1373)"><path fill="#ffffff" d="M 13.683594 38.386719 L 8.695312 35.730469 L 3.707031 38.386719 L 4.652344 32.78125 L 0.609375 28.8125 L 6.191406 27.984375 L 8.695312 22.886719 L 11.199219 27.984375 L 16.777344 28.8125 L 12.714844 32.78125 Z M 3.328125 29.703125 L 6 32.335938 L 5.367188 36.050781 L 8.675781 34.289062 L 11.980469 36.050781 L 11.347656 32.335938 L 14.019531 29.703125 L 10.316406 29.152344 L 8.652344 25.773438 L 6.988281 29.152344 Z M 3.328125 29.703125 " fill-opacity="1" fill-rule="nonzero"/></g><g clip-path="url(#891b15b1d2)"><path fill="#ffffff" d="M 50.316406 38.386719 L 45.324219 35.730469 L 40.335938 38.386719 L 41.285156 32.78125 L 37.242188 28.8125 L 42.820312 27.984375 L 45.324219 22.886719 L 47.832031 27.984375 L 53.410156 28.8125 L 49.367188 32.78125 Z M 39.957031 29.703125 L 42.632812 32.335938 L 42 36.050781 L 45.304688 34.289062 L 48.609375 36.050781 L 47.980469 32.335938 L 50.652344 29.703125 L 46.945312 29.152344 L 45.285156 25.773438 L 43.621094 29.152344 Z M 39.957031 29.703125 " fill-opacity="1" fill-rule="nonzero"/></g></svg>