<svg width="150" height="150" viewBox="0 0 150 150" fill="none" xmlns="http://www.w3.org/2000/svg">
<path fill-rule="evenodd" clip-rule="evenodd" d="M75.5 142C84.3031 142 92.7067 140.289 100.397 137.183C100.145 136.741 100 136.22 100 135.619V132.074V81.7115C100 78.8953 106.857 77.376 108 81.7115V133.531C128.29 122.143 142 100.423 142 75.5C142 38.7731 112.227 9 75.5 9C38.7731 9 9 38.7731 9 75.5C9 100.011 22.2611 121.425 42 132.958V132.074V81.7115C42 78.8953 48.8571 77.376 50 81.7115V135.619C50 136.073 49.9207 136.481 49.7778 136.843C57.6903 140.164 66.3808 142 75.5 142ZM35.3931 64.0332C39.9118 58.0004 55.0169 51.2767 65.2372 64.2558C66.1125 65.3673 66.7965 66.821 66.1557 68.0824C65.1325 70.0964 62.278 71.2778 60 68.9999L59.9999 68.9998C57.1025 66.1025 50.0078 59.0079 40.9679 68.8855C40.3087 69.6058 39.5864 70.346 38.6183 70.4724C37.0124 70.6822 34.8918 70.0237 34.5187 67.2244C34.3678 66.0925 34.7085 64.9472 35.3931 64.0332ZM114.776 64.4379C104.555 51.4589 89.4504 58.1825 84.9317 64.2154C84.2471 65.1293 83.9064 66.2746 84.0573 67.4065C84.4304 70.2059 86.551 70.8643 88.1569 70.6546C89.125 70.5281 89.8472 69.7879 90.5064 69.0676C99.5464 59.19 106.641 66.2846 109.539 69.182C111.817 71.46 114.671 70.2785 115.694 68.2645C116.335 67.0032 115.651 65.5494 114.776 64.4379ZM63.5 92.5001C64.5 83.5001 82 79.5001 86.5 92.5001V106C85.5 116 68 120.5 63.5 107V92.5001Z" fill="white"/>
</svg>
