<svg width="150" height="150" viewBox="0 0 150 150" fill="none" xmlns="http://www.w3.org/2000/svg">
<path fill-rule="evenodd" clip-rule="evenodd" d="M75.5 142C112.227 142 142 112.227 142 75.5C142 38.7731 112.227 9 75.5 9C38.7731 9 9 38.7731 9 75.5C9 112.227 38.7731 142 75.5 142ZM52.9021 40.8541C52.3034 39.0115 49.6966 39.0115 49.0979 40.8541L46.0607 50.2016C45.7929 51.0257 45.025 51.5836 44.1586 51.5836H34.33C32.3926 51.5836 31.587 54.0628 33.1544 55.2016L41.1059 60.9787C41.8069 61.488 42.1002 62.3907 41.8325 63.2148L38.7953 72.5623C38.1966 74.4049 40.3055 75.9372 41.873 74.7984L49.8244 69.0213C50.5254 68.512 51.4746 68.512 52.1756 69.0213L60.1271 74.7984C61.6945 75.9372 63.8034 74.4049 63.2047 72.5623L60.1675 63.2148C59.8998 62.3907 60.1931 61.488 60.8941 60.9787L68.8456 55.2016C70.413 54.0628 69.6074 51.5836 67.67 51.5836H57.8414C56.975 51.5836 56.2071 51.0257 55.9393 50.2016L52.9021 40.8541ZM98.0979 40.8541C98.6966 39.0115 101.303 39.0115 101.902 40.8541L104.939 50.2016C105.207 51.0257 105.975 51.5836 106.841 51.5836H116.67C118.607 51.5836 119.413 54.0628 117.846 55.2016L109.894 60.9787C109.193 61.488 108.9 62.3907 109.168 63.2148L112.205 72.5623C112.803 74.4049 110.694 75.9372 109.127 74.7984L101.176 69.0213C100.475 68.512 99.5254 68.512 98.8244 69.0213L90.873 74.7984C89.3055 75.9372 87.1966 74.4049 87.7953 72.5623L90.8325 63.2148C91.1002 62.3907 90.8069 61.488 90.1059 60.9787L82.1544 55.2016C80.587 54.0628 81.3926 51.5836 83.33 51.5836H93.1586C94.025 51.5836 94.7929 51.0257 95.0607 50.2016L98.0979 40.8541ZM42.5 92C56.1667 95.5 88.2 100.4 107 92C108.5 91 113.325 90.3454 112.5 95.5C110.34 109 69.5 143.5 38 97C36.9544 95.3373 37.5 90.842 42.5 92Z" fill="white"/>
</svg>
