<svg xmlns="http://www.w3.org/2000/svg" xmlns:xlink="http://www.w3.org/1999/xlink" width="72" zoomAndPan="magnify" viewBox="0 0 54 54" height="72" preserveAspectRatio="xMidYMid meet" version="1.0"><defs><clipPath id="ab512c72c2"><path d="M 22 24 L 33 24 L 33 47.464844 L 22 47.464844 Z M 22 24 " clip-rule="nonzero"/></clipPath><clipPath id="de5fc55124"><path d="M 14 6.230469 L 41 6.230469 L 41 25 L 14 25 Z M 14 6.230469 " clip-rule="nonzero"/></clipPath><clipPath id="f4e013ba7a"><path d="M 0.492188 23 L 53.507812 23 L 53.507812 32 L 0.492188 32 Z M 0.492188 23 " clip-rule="nonzero"/></clipPath></defs><path fill="#ffffff" d="M 28.316406 9.539062 C 28.785156 9.648438 29.214844 9.839844 29.609375 10.121094 C 30 10.398438 30.324219 10.742188 30.578125 11.152344 C 30.835938 11.558594 31 12 31.082031 12.472656 C 31.160156 12.945312 31.144531 13.417969 31.035156 13.882812 C 30.925781 14.351562 30.730469 14.78125 30.449219 15.167969 C 30.167969 15.558594 29.820312 15.882812 29.414062 16.136719 C 29.003906 16.390625 28.558594 16.554688 28.082031 16.632812 C 27.605469 16.710938 27.132812 16.695312 26.664062 16.585938 C 26.191406 16.480469 25.761719 16.285156 25.371094 16.003906 C 24.976562 15.726562 24.652344 15.382812 24.398438 14.976562 C 24.144531 14.566406 23.976562 14.125 23.898438 13.652344 C 23.820312 13.179688 23.832031 12.710938 23.941406 12.242188 C 24.054688 11.773438 24.25 11.34375 24.527344 10.957031 C 24.808594 10.566406 25.15625 10.242188 25.566406 9.988281 C 25.976562 9.734375 26.417969 9.570312 26.894531 9.492188 C 27.371094 9.414062 27.84375 9.429688 28.316406 9.539062 Z M 28.316406 9.539062 " fill-opacity="1" fill-rule="nonzero"/><g clip-path="url(#ab512c72c2)"><path fill="#ffffff" d="M 28.527344 25.382812 C 27.316406 25.082031 25.882812 24.925781 24.386719 24.925781 C 24.175781 24.925781 23.96875 24.925781 23.761719 24.933594 C 23.539062 24.9375 23.324219 24.953125 23.109375 24.96875 L 23.109375 29.90625 C 22.777344 31.230469 22.347656 33.566406 22.347656 36.777344 C 22.347656 39.304688 22.613281 42.367188 23.402344 45.890625 C 23.609375 46.828125 24.445312 47.46875 25.375 47.46875 C 25.519531 47.46875 25.667969 47.453125 25.816406 47.417969 C 26.90625 47.179688 27.59375 46.101562 27.351562 45.019531 C 26.628906 41.785156 26.394531 39.023438 26.390625 36.777344 C 26.390625 34.535156 26.628906 32.816406 26.855469 31.675781 C 26.886719 31.523438 26.917969 31.382812 26.949219 31.25 L 28.230469 31.25 C 28.441406 31.8125 28.699219 32.851562 28.703125 34.605469 C 28.703125 36.042969 28.523438 37.960938 27.984375 40.445312 C 27.746094 41.53125 28.441406 42.601562 29.535156 42.835938 C 29.679688 42.867188 29.820312 42.882812 29.960938 42.882812 C 30.894531 42.882812 31.734375 42.238281 31.9375 41.292969 C 32.527344 38.574219 32.75 36.378906 32.75 34.605469 C 32.75 32.394531 32.402344 30.828125 31.988281 29.761719 C 31.949219 29.652344 31.90625 29.554688 31.863281 29.457031 L 31.863281 26.59375 C 30.777344 26.101562 29.664062 25.660156 28.527344 25.382812 Z M 28.527344 25.382812 " fill-opacity="1" fill-rule="nonzero"/></g><g clip-path="url(#de5fc55124)"><path fill="#ffffff" d="M 24.152344 22.675781 C 25.296875 22.675781 26.414062 22.800781 27.261719 22.910156 C 28.882812 23.121094 30.402344 23.683594 31.863281 24.328125 L 31.863281 19.9375 C 32.46875 19.527344 33.792969 18.558594 35.257812 17.042969 C 37.21875 15.007812 39.449219 11.972656 40.4375 7.953125 C 40.609375 7.261719 40.183594 6.5625 39.488281 6.394531 C 38.792969 6.226562 38.09375 6.648438 37.925781 7.339844 C 37.082031 10.773438 35.140625 13.445312 33.390625 15.261719 C 32.515625 16.164062 31.695312 16.855469 31.097656 17.308594 C 30.847656 17.5 30.640625 17.648438 30.480469 17.757812 L 24.492188 17.757812 C 23.9375 17.375 22.726562 16.472656 21.421875 15.085938 C 19.714844 13.277344 17.867188 10.664062 17.050781 7.339844 C 16.882812 6.648438 16.179688 6.226562 15.484375 6.394531 C 14.792969 6.5625 14.367188 7.261719 14.535156 7.953125 C 15.527344 11.972656 17.757812 15.007812 19.714844 17.042969 C 21.183594 18.5625 22.507812 19.527344 23.109375 19.9375 L 23.109375 22.714844 C 23.445312 22.6875 23.789062 22.675781 24.152344 22.675781 Z M 24.152344 22.675781 " fill-opacity="1" fill-rule="nonzero"/></g><g clip-path="url(#f4e013ba7a)"><path fill="#ffffff" d="M 0.609375 25.449219 C 0.609375 25.578125 0.523438 26.152344 0.617188 26.253906 C 3.234375 29.136719 7.089844 31.699219 11.175781 30.933594 C 13.167969 30.5625 14.714844 29.164062 16.261719 27.96875 C 17.40625 27.085938 18.542969 26.171875 19.835938 25.511719 C 20.765625 25.035156 21.765625 24.785156 22.789062 24.675781 C 22.894531 24.664062 23.003906 24.65625 23.109375 24.648438 C 23.324219 24.628906 23.539062 24.617188 23.753906 24.609375 C 25.34375 24.566406 27.058594 24.6875 28.605469 25.070312 C 29.722656 25.34375 30.800781 25.765625 31.863281 26.238281 C 31.972656 26.285156 32.082031 26.335938 32.1875 26.382812 C 33.609375 27.035156 35.007812 27.761719 36.425781 28.351562 C 39.089844 29.457031 41.945312 30.296875 44.859375 30.039062 C 48.390625 29.730469 51.246094 27.546875 53.375 24.859375 C 53.46875 24.742188 53.382812 24.199219 53.382812 24.058594 C 53.382812 23.925781 53.289062 23.359375 53.375 23.253906 C 50.992188 26.257812 47.839844 28.402344 43.898438 28.484375 C 40.675781 28.546875 37.5625 27.285156 34.679688 25.984375 C 33.847656 25.609375 33.023438 25.207031 32.1875 24.828125 C 32.082031 24.777344 31.972656 24.730469 31.863281 24.679688 C 30.375 24.015625 28.855469 23.441406 27.21875 23.230469 C 25.863281 23.054688 24.476562 22.933594 23.109375 23.035156 C 23.003906 23.042969 22.894531 23.054688 22.789062 23.0625 C 22.523438 23.089844 22.261719 23.125 22 23.171875 C 20.71875 23.398438 19.566406 23.984375 18.496094 24.699219 C 15.792969 26.507812 13.503906 29.257812 10.054688 29.464844 C 6.382812 29.6875 2.957031 27.21875 0.617188 24.648438 C 0.695312 24.734375 0.609375 25.335938 0.609375 25.449219 Z M 0.609375 25.449219 " fill-opacity="1" fill-rule="nonzero"/></g></svg>