<svg width="150" height="150" viewBox="0 0 150 150" fill="none" xmlns="http://www.w3.org/2000/svg">
<path d="M92.5 91.5C21 89.5 45 93.5 19 107.5C16.5 107.667 14.5 108 6.5 108C3.5 108 1.5 110.5 1.5 113V135C2.3 139.4 6.16667 140.5 8 140.5H95C103.4 139.7 109.5 135.833 111.5 134C121.833 126.167 143.2 109.9 146 107.5C151 94.5 139.5 89.5 132.5 92.5L101 115.5C92.1667 115.5 73.5 116 69.5 116C64.5 114 67 108 70 108H93C103 104 100 92 92.5 91.5Z" fill="white"/>
<path d="M56.5 60.5C57.3 63.7001 64.5 66.1667 68 67C68 68.0001 68.1 70.3001 68.5 71.5001C71.5 78.5 80.5 75 81 71.0001C81.1667 70.1668 81 68.2 81 67C95.3983 61.5254 95.3215 50.2614 89.5 43.5C85.2084 38.5155 77.5578 37.5759 71.5 35C69.1442 33.9983 68 31 72 31C75 31 85 32.5 86.5 32C94 28 88 19.5001 81 19.5001C80.8334 19.3334 81 17.5 80.5 14.5C79 9.00007 70 9.50002 68.5 13.5C68.3334 14.1667 68 16 68 19C62.5 20 55.1611 25.5 56.3964 35C58 44.5 67.9206 47.7212 76 50C78.5 50.7051 81.9 51.1 79.5 53.5C76.5 56.5 67.5 53.5 65.5 52.5C63.5 51.5 61.5 51.5 59.5 52C57.5 52.5 55.5 56.5 56.5 60.5Z" fill="white"/>
</svg>
