<svg width="150" height="150" viewBox="0 0 150 150" fill="none" xmlns="http://www.w3.org/2000/svg">
<path fill-rule="evenodd" clip-rule="evenodd" d="M75.5 142C112.227 142 142 112.227 142 75.5C142 38.7731 112.227 9 75.5 9C38.7731 9 9 38.7731 9 75.5C9 112.227 38.7731 142 75.5 142ZM64.776 119.2C64.776 121.8 65.676 124 67.476 125.8C69.276 127.6 71.476 128.5 74.076 128.5C76.676 128.5 78.876 127.6 80.676 125.8C82.476 124 83.376 121.8 83.376 119.2C83.376 116.6 82.476 114.4 80.676 112.6C78.876 110.8 76.676 109.9 74.076 109.9C71.476 109.9 69.276 110.8 67.476 112.6C65.676 114.4 64.776 116.6 64.776 119.2ZM55.626 71.35L64.326 62.5C61.226 59.5 59.676 56.05 59.676 52.15C59.676 47.65 61.076 44.2 63.876 41.8C66.776 39.3 70.176 38.05 74.076 38.05C76.176 38.05 78.126 38.45 79.926 39.25C81.826 39.95 83.476 41 84.876 42.4C86.276 43.7 87.376 45.35 88.176 47.35C89.076 49.35 89.526 51.6 89.526 54.1C89.526 58.8 86.876 64.45 81.576 71.05L76.626 77.2C74.626 79.7 72.926 81.75 71.526 83.35C70.226 84.95 69.176 86.45 68.376 87.85C67.676 89.15 67.176 90.5 66.876 91.9C66.576 93.2 66.426 94.85 66.426 96.85H80.976C80.976 94.75 81.526 92.65 82.626 90.55C83.726 88.35 85.076 86.15 86.676 83.95C88.376 81.75 90.176 79.5 92.076 77.2C94.076 74.8 95.876 72.3 97.476 69.7C99.176 67.1 100.576 64.4 101.676 61.6C102.776 58.7 103.326 55.65 103.326 52.45C103.326 48.05 102.526 44.15 100.926 40.75C99.426 37.35 97.376 34.5 94.776 32.2C92.176 29.9 89.176 28.15 85.776 26.95C82.376 25.75 78.776 25.15 74.976 25.15C71.076 25.15 67.426 25.8 64.026 27.1C60.626 28.3 57.626 30.05 55.026 32.35C52.426 34.65 50.376 37.45 48.876 40.75C47.376 43.95 46.626 47.55 46.626 51.55C46.626 60.45 49.626 67.05 55.626 71.35Z" fill="white"/>
</svg>
